<svg width="100" height="39" viewBox="0 0 100 39" fill="none" xmlns="http://www.w3.org/2000/svg">
<g clip-path="url(#clip0_1307_17103)">
<g clip-path="url(#clip1_1307_17103)">
<g clip-path="url(#clip2_1307_17103)">
<mask id="mask0_1307_17103" style="mask-type:luminance" maskUnits="userSpaceOnUse" x="-1" y="-1" width="101" height="40">
<path d="M99.9941 -0.00390625H-0.00585938V38.7961H99.9941V-0.00390625Z" fill="white"/>
</mask>
<g mask="url(#mask0_1307_17103)">
<mask id="mask1_1307_17103" style="mask-type:luminance" maskUnits="userSpaceOnUse" x="18" y="1" width="82" height="38">
<path d="M99.9969 1.20117H18.7969V38.8012H99.9969V1.20117Z" fill="white"/>
</mask>
<g mask="url(#mask1_1307_17103)">
<path d="M23.5645 1.20117H95.2257L73.5553 38.9688H23.5645V1.20117Z" fill="#171717"/>
<path fill-rule="evenodd" clip-rule="evenodd" d="M42.1489 7.78635C41.6605 7.41791 41.0605 7.22799 40.4489 7.24835C39.7496 7.24835 39.1688 7.68835 39.1688 8.21675C39.1688 8.52875 39.3516 8.77675 39.8788 8.95915L40.7613 9.26035C41.7513 9.59395 42.2677 10.1211 42.2677 10.9927C42.2677 12.6603 40.8473 14.0271 38.5448 14.0271C37.6511 14.0492 36.7709 13.8057 36.0156 13.3275L36.8332 12.1439C37.4265 12.5277 38.1175 12.7331 38.824 12.7355C39.8032 12.7355 40.4273 12.2299 40.4273 11.4659C40.4273 11.0787 40.1585 10.8203 39.6096 10.6375L38.8028 10.3575C37.9312 10.0563 37.4028 9.63755 37.4028 8.74355C37.4028 7.19395 38.866 5.93515 40.6829 5.93515C41.5481 5.91031 42.3953 6.18387 43.0829 6.70995L42.1469 7.78595" fill="white"/>
<path fill-rule="evenodd" clip-rule="evenodd" d="M46.2799 9.21407H45.3007L44.7091 12.0541C44.6727 12.2165 44.6547 12.3824 44.6551 12.5489C44.6551 12.8609 44.8151 12.9577 45.1499 12.9577C45.3371 12.9501 45.5223 12.9139 45.6987 12.8501V13.7433C45.2967 13.8989 44.8707 13.9827 44.4399 13.9909C43.5899 13.9909 43.1055 13.5713 43.1055 13.0225C43.1071 12.7767 43.1323 12.5318 43.1807 12.2909L43.8263 9.21367H43.2655L43.4807 8.19167H44.0511C44.1247 7.73723 44.2399 7.29055 44.3955 6.85727L45.9555 6.48047C45.7731 7.04191 45.6223 7.61307 45.5035 8.19127H46.8163L46.2783 9.21327" fill="white"/>
<path fill-rule="evenodd" clip-rule="evenodd" d="M51.5819 9.87318L51.1299 12.0144C51.0675 12.2014 51.0535 12.4011 51.0895 12.5949C51.1251 12.7887 51.2095 12.9703 51.3343 13.1228L50.1075 14.0372C49.9927 13.9553 49.8955 13.8511 49.8215 13.7309C49.7475 13.6108 49.6983 13.477 49.6771 13.3376C49.4903 13.5534 49.2591 13.7259 48.9987 13.8431C48.7387 13.9601 48.4559 14.019 48.1707 14.0156C47.1379 14.0156 46.6107 13.3808 46.6107 12.2188C46.5827 11.0263 47.0095 9.86778 47.8051 8.97878C48.0963 8.67838 48.4491 8.4441 48.8387 8.29186C49.2287 8.13958 49.6467 8.07294 50.0647 8.09638C50.7143 8.07098 51.3603 8.20386 51.9475 8.48358C51.8275 8.81718 51.6783 9.44118 51.5815 9.87158M49.8707 9.24758C49.6707 9.22806 49.4695 9.2627 49.2879 9.34786C49.1059 9.43302 48.9507 9.56558 48.8379 9.73158C48.3751 10.2804 48.1387 11.3992 48.1387 12.1524C48.1387 12.658 48.2679 12.884 48.5907 12.884C48.8355 12.8472 49.0659 12.7462 49.2587 12.5911C49.4515 12.4361 49.5999 12.2327 49.6883 12.0016L50.2695 9.33318C50.1435 9.2771 50.0071 9.24778 49.8695 9.24718" fill="white"/>
<path fill-rule="evenodd" clip-rule="evenodd" d="M54.5097 8.01562C54.6177 8.30782 54.6653 8.6189 54.6497 8.93002C54.8877 8.66054 55.1813 8.44522 55.5097 8.29858C55.8381 8.15194 56.1941 8.07742 56.5541 8.08002C56.7057 8.06482 56.8589 8.08314 57.0029 8.13374C57.1469 8.18434 57.2777 8.26598 57.3865 8.37286C57.4953 8.4797 57.5793 8.60922 57.6325 8.75218C57.6857 8.89514 57.7069 9.04802 57.6945 9.20006C57.6925 9.4677 57.6637 9.7345 57.6085 9.99642L56.7909 13.8592H55.3277L56.1133 10.1793C56.1517 10.013 56.1769 9.8439 56.1885 9.67366C56.1885 9.39366 56.0685 9.31842 55.8013 9.31842C55.4461 9.31842 55.0265 9.54446 54.5641 10.1684L53.7785 13.8592H52.3145L53.1213 10.0501C53.2469 9.55942 53.2469 9.04506 53.1213 8.55446L54.5093 8.01642" fill="white"/>
<path fill-rule="evenodd" clip-rule="evenodd" d="M60.9847 7.37705L60.0915 11.5626C59.9999 11.9227 59.9387 12.2899 59.9087 12.6602C59.9087 12.8646 59.9947 12.983 60.1991 12.983C60.2531 12.9863 60.3075 12.979 60.3591 12.9614L60.4235 13.8438C60.1291 13.9453 59.8199 13.9962 59.5087 13.9946C58.7123 13.9946 58.3359 13.5642 58.3359 12.983C58.3619 12.6351 58.4155 12.2898 58.4959 11.9502L59.3891 7.73225C59.5571 7.20429 59.6047 6.64545 59.5291 6.09665L61.0999 5.62305C61.1499 6.21041 61.1095 6.80197 60.9799 7.37705" fill="white"/>
<path fill-rule="evenodd" clip-rule="evenodd" d="M65.7545 13.2427C65.0877 13.7367 64.2818 14.0078 63.4518 14.0175C62.107 14.0175 61.3105 13.3075 61.3105 11.9407C61.3177 10.7794 61.7726 9.66557 62.5802 8.83109C62.837 8.58017 63.1418 8.38401 63.4766 8.25453C63.8113 8.12505 64.1689 8.06497 64.5277 8.07789C65.6477 8.07789 66.4429 8.51789 66.4429 9.62749C66.4429 10.7035 65.4638 11.5751 63.581 11.5751C63.353 11.576 63.1253 11.5508 62.9029 11.4999C62.9029 11.4999 62.849 11.8659 62.849 12.0055C62.849 12.6511 63.1826 12.9095 63.7958 12.9095C64.3674 12.8773 64.9157 12.6708 65.3665 12.3179L65.7545 13.2427ZM63.581 10.5419C64.2266 10.5419 64.9581 10.3267 64.9581 9.75629C64.9693 9.67645 64.9614 9.59513 64.9354 9.51881C64.9098 9.44253 64.8662 9.37337 64.8086 9.31685C64.751 9.26037 64.6813 9.21813 64.6045 9.19353C64.5277 9.16889 64.4461 9.16257 64.3665 9.17509C63.8065 9.17509 63.3765 9.50869 63.1613 10.4879C63.2989 10.5205 63.4398 10.5389 63.581 10.5419Z" fill="white"/>
<path fill-rule="evenodd" clip-rule="evenodd" d="M68.7013 8.12109L68.9813 11.4243C69.0029 11.7687 69.0245 12.5971 69.0245 12.5971C69.0245 12.5971 69.4116 11.6179 69.7884 10.9079L71.2089 8.20709H72.8013L69.5212 13.9531C68.908 15.0507 68.5097 15.5239 68.0365 15.8147C67.5869 16.0973 67.0792 16.2739 66.5516 16.3311L66.248 15.3411C66.5936 15.2722 66.9272 15.1525 67.238 14.9859C67.6684 14.7139 68.0088 14.321 68.2172 13.8563H67.8081C67.7865 13.4367 67.7328 12.7479 67.668 12.2639L67.1628 8.28109L68.7013 8.12109Z" fill="white"/>
<path fill-rule="evenodd" clip-rule="evenodd" d="M40.9193 16.4375C42.0813 16.4375 42.9193 16.9863 42.9193 18.0947C42.9057 18.5528 42.7397 18.9933 42.4473 19.3463C42.1549 19.6991 41.7529 19.9441 41.3053 20.0423C41.6417 20.1177 41.9409 20.3086 42.1513 20.5818C42.3617 20.8551 42.4697 21.1933 42.4565 21.5379C42.4385 22.1971 42.1825 22.8276 41.7365 23.3131C41.1765 23.8835 40.5313 24.1307 39.3364 24.1307H36.5508L38.1864 16.4479H40.9197L40.9193 16.4375ZM38.3692 22.8611H39.3692C39.6514 22.8681 39.9291 22.7893 40.1657 22.6351C40.3437 22.5027 40.4889 22.3308 40.5897 22.133C40.6905 21.9352 40.7445 21.7167 40.7469 21.4947C40.7469 20.9567 40.4457 20.7747 39.7676 20.7747H38.81L38.3692 22.8611ZM39.0684 19.5147H39.9724C40.2597 19.5402 40.5469 19.4598 40.7793 19.2887C40.9177 19.1907 41.0313 19.062 41.1117 18.9126C41.1921 18.7633 41.2365 18.5973 41.2421 18.4279C41.2421 17.9543 41.0269 17.7499 40.3921 17.7499H39.4344L39.0684 19.5147Z" fill="white"/>
<path fill-rule="evenodd" clip-rule="evenodd" d="M45.9668 17.631L45.0736 21.8166C44.9816 22.1766 44.9208 22.5438 44.8908 22.9142C44.8908 23.1186 44.9768 23.237 45.1812 23.237C45.2352 23.2402 45.2896 23.2329 45.3412 23.2154L45.4056 24.0978C45.1112 24.1983 44.802 24.2492 44.4912 24.2486C43.6948 24.2486 43.3184 23.8182 43.3184 23.237C43.3444 22.889 43.398 22.5437 43.4784 22.2042L44.3716 17.9862C44.5224 17.2438 44.6192 16.7274 44.5008 16.3506L46.0716 15.877C46.1328 16.4636 46.0964 17.0562 45.964 17.631" fill="white"/>
<path fill-rule="evenodd" clip-rule="evenodd" d="M51.4226 20.1286L50.9706 22.2698C50.9074 22.4574 50.8938 22.6582 50.9314 22.8526C50.969 23.0469 51.057 23.228 51.1858 23.3783L49.959 24.2927C49.7306 24.1238 49.5762 23.8731 49.5286 23.593C49.3418 23.8089 49.1106 23.9814 48.8502 24.0985C48.5902 24.2156 48.3074 24.2745 48.0222 24.271C46.9894 24.271 46.4622 23.6362 46.4622 22.4742C46.4342 21.2817 46.861 20.1232 47.6566 19.2343C47.9466 18.9349 48.2974 18.7012 48.685 18.549C49.073 18.3968 49.4894 18.3295 49.9054 18.3518C50.555 18.3264 51.201 18.4593 51.7882 18.739C51.6342 19.1927 51.5118 19.6565 51.4222 20.127M49.7114 19.5031C49.5102 19.4842 49.3074 19.5192 49.1242 19.6043C48.9406 19.6894 48.7834 19.8216 48.6678 19.9875C48.205 20.5362 47.9682 21.6551 47.9682 22.4083C47.9682 22.9139 48.0974 23.1398 48.4202 23.1398C48.665 23.1031 48.8954 23.002 49.0882 22.847C49.281 22.692 49.4294 22.4885 49.5178 22.2575L50.099 19.589C49.9774 19.5331 49.845 19.5038 49.7114 19.5031Z" fill="white"/>
<path fill-rule="evenodd" clip-rule="evenodd" d="M56.1453 19.9025C56.0425 19.7776 55.9145 19.6756 55.7701 19.6033C55.6253 19.531 55.4669 19.49 55.3053 19.4829C55.1713 19.4834 55.0393 19.5136 54.9181 19.5712C54.7973 19.6289 54.6909 19.7127 54.6061 19.8165C54.1037 20.5571 53.8305 21.429 53.8205 22.3237C53.8205 22.9049 54.1005 23.1637 54.4985 23.1637C54.9617 23.1196 55.3969 22.9226 55.7357 22.6037L56.2305 23.5185C55.6481 24.0056 54.9129 24.2722 54.1537 24.2717C52.8949 24.2717 52.2169 23.5401 52.2169 22.3241C52.2129 21.698 52.3381 21.0777 52.5841 20.502C52.8305 19.9262 53.1925 19.4074 53.6481 18.9777C54.1605 18.5244 54.8257 18.2822 55.5097 18.2997C55.7941 18.3012 56.0753 18.3623 56.3349 18.4791C56.5941 18.5959 56.8265 18.7657 57.0161 18.9777L56.1445 19.9029" fill="white"/>
<path fill-rule="evenodd" clip-rule="evenodd" d="M59.955 15.877C60.0302 16.157 60.0194 16.8238 59.7722 18.0074L58.4594 24.119H56.9746L58.2982 17.9106C58.441 17.4035 58.4778 16.8724 58.4058 16.3506L59.955 15.877ZM62.9246 18.4594L60.6114 20.9126L62.1394 24.119H60.3962L59.1802 20.9126L61.0954 18.4594H62.9246Z" fill="white"/>
<path fill-rule="evenodd" clip-rule="evenodd" d="M72.8125 20.3644C72.6873 21.1363 72.4009 21.8731 71.9725 22.5273L73.2421 24.1196H71.2821L70.9053 23.6353C70.2397 24.0939 69.4421 24.3208 68.6349 24.2808C67.0961 24.2808 66.2461 23.5169 66.2461 22.5161C66.2461 21.5909 66.8809 20.7728 68.1077 20.2672C67.9189 20.1153 67.7681 19.9215 67.6669 19.7011C67.5661 19.4807 67.5181 19.2399 67.5265 18.9976C67.5265 17.7709 68.6669 16.7812 70.1521 16.7812C71.2925 16.7812 72.0137 17.3413 72.0137 18.1477C72.0137 18.9976 71.7017 19.6432 70.3137 20.278L70.1737 20.3424L71.1961 21.5693C71.3889 21.1956 71.5165 20.7916 71.5725 20.3749H72.8101L72.8125 20.3644ZM67.8845 22.3873C67.8845 22.8929 68.2609 23.1944 68.9173 23.1944C69.3713 23.2162 69.8181 23.0743 70.1761 22.7944L68.7361 21.0745C68.4845 21.1904 68.2713 21.3753 68.1209 21.6077C67.9705 21.8401 67.8889 22.1104 67.8861 22.3873H67.8845ZM70.5205 18.3309C70.5237 18.2585 70.5113 18.1862 70.4849 18.1188C70.4581 18.0514 70.4177 17.9903 70.3661 17.9396C70.3141 17.8889 70.2525 17.8496 70.1845 17.8243C70.1165 17.799 70.0441 17.7883 69.9717 17.7929C69.7341 17.7965 69.5073 17.8933 69.3405 18.0623C69.1733 18.2314 69.0793 18.4592 69.0785 18.6969C69.1089 19.0359 69.2661 19.3509 69.5185 19.5793C69.7889 19.492 70.0281 19.3272 70.2057 19.1053C70.3837 18.8835 70.4921 18.6143 70.5185 18.3312L70.5205 18.3309Z" fill="white"/>
<path fill-rule="evenodd" clip-rule="evenodd" d="M39.9616 26.918C41.2417 26.918 42.0277 27.058 42.5117 27.6712C42.9297 28.2021 43.1369 28.869 43.0929 29.5436C43.0929 30.8024 42.6409 32.4488 41.6929 33.4604C40.8861 34.3104 40.1113 34.6116 38.4216 34.6116H36.5508L38.1864 26.9288H39.9616V26.918ZM38.4016 33.3416H39.1656C39.4533 33.3412 39.7363 33.268 39.9881 33.1287C40.2397 32.9894 40.4521 32.7887 40.6057 32.5452C41.1233 31.6196 41.4077 30.5818 41.4341 29.5216C41.4341 28.8116 41.2297 28.1444 40.2073 28.1444H39.5108L38.4024 33.3416H38.4016Z" fill="white"/>
<path fill-rule="evenodd" clip-rule="evenodd" d="M47.9234 33.9849C47.2602 34.4786 46.4578 34.7498 45.6314 34.7597C44.2866 34.7597 43.4902 34.0497 43.4902 32.6829C43.4974 31.5216 43.9518 30.4078 44.7598 29.5733C45.0162 29.3224 45.3214 29.1262 45.6562 28.9967C45.991 28.8672 46.3486 28.8072 46.7074 28.8201C47.8274 28.8201 48.6334 29.2601 48.6334 30.3697C48.6334 31.4457 47.6542 32.3173 45.7714 32.3173C45.543 32.3182 45.3158 32.293 45.0934 32.2421C45.0934 32.2421 45.0398 32.6081 45.0398 32.7477C45.0398 33.3933 45.3734 33.6517 45.9866 33.6517C46.5586 33.6212 47.1074 33.4146 47.5574 33.06L47.9234 33.9849ZM45.7498 31.2733C46.3954 31.2733 47.127 31.058 47.127 30.4876C47.1378 30.4078 47.1302 30.3265 47.1042 30.2502C47.0782 30.1739 47.0346 30.1047 46.9774 30.0482C46.9198 29.9918 46.8498 29.9495 46.773 29.9249C46.6962 29.9003 46.615 29.894 46.5354 29.9064C45.965 29.9064 45.5562 30.2401 45.3302 31.2193C45.4678 31.2509 45.6082 31.2692 45.7498 31.2733Z" fill="white"/>
<path fill-rule="evenodd" clip-rule="evenodd" d="M53.0589 30.3834C52.9561 30.2585 52.8281 30.1565 52.6837 30.0842C52.5389 30.0119 52.3805 29.9709 52.2189 29.9638C52.0849 29.9642 51.9525 29.9943 51.8317 30.052C51.7105 30.1097 51.6041 30.1935 51.5193 30.2974C51.0173 31.0379 50.7441 31.9099 50.7337 32.8046C50.7337 33.3858 51.0137 33.6446 51.4117 33.6446C51.8749 33.6004 52.3101 33.4034 52.6489 33.0846L53.1437 33.999C52.5605 34.4844 51.8257 34.7508 51.0669 34.7522C49.8081 34.7522 49.1193 34.0206 49.1193 32.8046C49.1145 32.1775 49.2401 31.5562 49.4877 30.9801C49.7357 30.4041 50.1005 29.8858 50.5593 29.4582C51.0717 29.0049 51.7369 28.7626 52.4209 28.7802C52.7053 28.7817 52.9865 28.8428 53.2461 28.9595C53.5053 29.0763 53.7377 29.2462 53.9273 29.4582L53.0557 30.3834" fill="white"/>
<path fill-rule="evenodd" clip-rule="evenodd" d="M56.8544 26.3555C56.9296 26.6355 56.9188 27.3023 56.6716 28.4859L55.3696 34.5975H53.8848L55.2084 28.3891C55.3572 27.883 55.3936 27.3507 55.316 26.8291L56.8544 26.3555ZM59.824 28.9379L57.5212 31.3911L59.0492 34.5975H57.306L56.09 31.3911L58.0052 28.9379H59.824Z" fill="white"/>
<path fill-rule="evenodd" clip-rule="evenodd" d="M64.1071 33.9846C63.4399 34.4786 62.6343 34.7498 61.8043 34.7594C60.4595 34.7594 59.6523 34.0494 59.6523 32.6826C59.6595 31.5213 60.1143 30.4075 60.9219 29.573C61.1791 29.3229 61.4843 29.1273 61.8191 28.9978C62.1535 28.8684 62.5107 28.8079 62.8695 28.8198C63.9895 28.8198 64.7847 29.2598 64.7847 30.3694C64.7847 31.4454 63.8055 32.317 61.9227 32.317C61.6947 32.3179 61.4671 32.2927 61.2447 32.2418C61.2447 32.2418 61.1907 32.6078 61.1907 32.7474C61.1907 33.393 61.5243 33.6514 62.1375 33.6514C62.7095 33.621 63.2583 33.4144 63.7083 33.0598L64.1071 33.9846ZM61.9335 31.273C62.5791 31.273 63.3107 31.0578 63.3107 30.4874C63.3107 30.143 63.1599 29.9062 62.7083 29.9062C62.1483 29.9062 61.7291 30.2398 61.5031 31.219C61.6447 31.2502 61.7887 31.2686 61.9335 31.273Z" fill="white"/>
<path fill-rule="evenodd" clip-rule="evenodd" d="M67.3143 28.7578C67.4347 29.0466 67.4791 29.3614 67.4435 29.6722C67.8371 29.1887 68.4055 28.8796 69.0251 28.8114C69.2015 28.8035 69.3767 28.8451 69.5307 28.9314L68.8959 30.2334C68.7643 30.1602 68.6159 30.1231 68.4655 30.1258C68.1751 30.1258 67.8523 30.2858 67.3895 30.9006L66.6039 34.6022H65.1191L65.9155 30.8686C66.0527 30.3549 66.0603 29.8151 65.9371 29.2978L67.3143 28.7598" fill="white"/>
</g>
</g>
</g>
</g>
</g>
<defs>
<clipPath id="clip0_1307_17103">
<rect width="100" height="38.8018" fill="white"/>
</clipPath>
<clipPath id="clip1_1307_17103">
<rect width="100" height="38.8018" fill="white"/>
</clipPath>
<clipPath id="clip2_1307_17103">
<rect width="100" height="38.8" fill="white" transform="translate(0 0.00195312)"/>
</clipPath>
</defs>
</svg>
