<svg width="125" height="28" viewBox="0 0 125 28" fill="none" xmlns="http://www.w3.org/2000/svg">
<g clip-path="url(#clip0_1307_17078)">
<path fill-rule="evenodd" clip-rule="evenodd" d="M12.5994 3.58664V0.954195H0.763672V3.58664H4.82008V15.033H8.48603V3.58664H12.5994ZM58.2208 15.033C58.1234 14.0979 58.0633 13.3761 58.0633 12.8883V8.14941C58.0633 6.18082 56.6218 4.95266 54.7101 4.95266C53.3244 4.97126 52.1169 5.59574 51.4531 6.68725C51.0441 5.59574 49.8356 5.01061 48.7036 5.01061C47.3388 5.01061 46.1882 5.45903 45.5429 6.68725L45.4664 5.22501H42.1132V15.033H45.5834V9.12611C45.5834 8.81437 45.4467 7.13674 47.0467 7.13674C48.1185 7.13674 48.3733 8.0926 48.3733 9.02767V15.033H51.8239V9.12611C51.8239 8.81437 51.6872 7.13674 53.2862 7.13674C54.359 7.13674 54.6116 8.0926 54.6116 9.02767V15.033H58.2208ZM41.3159 8.1112V5.12762C39.8143 5.10684 38.6626 5.59574 38.2153 7.09735L38.1377 5.22501H34.6663C34.744 6.02449 34.744 7.09735 34.744 7.74042V15.033H38.2153V10.7436C38.2153 9.12611 38.6834 8.12974 40.5952 8.09148C40.8281 8.09148 41.0622 8.09148 41.3159 8.1112ZM64.201 4.95266C61.003 4.95266 58.9163 6.72657 58.9163 10.0994C58.9163 13.5708 61.0227 15.3065 64.201 15.3065C67.3793 15.3065 69.4855 13.5708 69.4855 10.0994C69.4855 6.72657 67.3986 4.95266 64.201 4.95266ZM64.201 7.0197C65.6632 7.0197 65.9364 8.52025 65.9364 10.0612C65.9364 11.8559 65.6246 13.259 64.201 13.259C62.7767 13.259 62.4656 11.8559 62.4656 10.0612C62.4656 8.50053 62.7388 7.00004 64.201 7.00004V7.0197ZM23.29 15.033C23.1927 14.0979 23.1533 13.4341 23.1533 12.8883V8.14941C23.1533 6.18082 21.6911 4.95266 19.7804 4.95266C19.1953 4.95266 18.6287 5.04997 18.142 5.26433C17.6937 5.47869 17.265 5.78929 16.8942 6.25847V0.953125H13.4229V15.0319H16.8942V9.12505C16.8942 8.81332 16.7575 7.13562 18.3565 7.13562C19.448 7.13562 19.683 8.09148 19.683 9.02655V15.0319L23.29 15.033ZM33.8986 10.8016C33.9183 7.27238 32.8651 4.95266 28.9453 4.95266C25.8448 4.95266 23.9943 6.86327 23.9943 9.84683C23.9943 13.5139 25.299 15.3065 29.1214 15.3065C30.3102 15.3065 31.3635 15.0331 32.163 14.4873C33.0214 13.9219 33.7236 13.0251 33.8209 11.7958H30.5443C30.447 12.6937 29.922 13.2974 28.8874 13.2974C27.5607 13.2974 27.2885 12.0298 27.3082 10.8016H33.8986ZM30.5837 8.91175H27.3672C27.4437 7.87824 27.6778 6.82501 28.9662 6.76708C29.5502 6.74629 29.9417 7.0197 30.1943 7.44953C30.4678 7.85858 30.5837 8.40433 30.5837 8.93036V8.91175Z" fill="#171717"/>
<path fill-rule="evenodd" clip-rule="evenodd" d="M123.795 7.93735V4.95273C122.294 4.93304 121.143 5.42191 120.695 6.9235L120.617 5.22614H117.146C117.223 6.02562 117.223 7.09735 117.223 7.74266V15.0353H120.695V10.7437C120.695 9.12617 121.163 7.95589 123.074 7.91651C123.307 7.91651 123.543 7.91657 123.795 7.93735ZM105.74 15.0353C105.643 14.0991 105.603 13.4352 105.603 12.8894V8.15059C105.603 6.18087 104.141 4.95273 102.23 4.95273C101.645 4.95273 101.117 5.05004 100.631 5.2644C100.183 5.47875 99.7147 5.79151 99.3438 6.25959V0.955328H95.8718V15.0342H99.3438V9.12617C99.3438 8.81338 99.2076 7.13674 100.806 7.13674C101.899 7.13674 102.133 8.09266 102.133 9.02885V15.0342H105.74V15.0353ZM95.0219 12.1097C95.0219 10.5883 94.2211 9.84801 93.1104 9.43896C91.0247 8.69634 89.4635 8.65913 89.4635 7.87712C89.4635 7.29422 89.7952 6.96177 90.3595 6.96177C90.8082 6.96177 91.1025 7.07769 91.296 7.27344C91.4721 7.46919 91.5486 7.77981 91.5486 8.20964H94.8445C94.7674 5.63514 92.7396 4.95159 90.5157 4.95159C88.6242 4.95159 86.1664 5.61437 86.1664 7.97562C86.1664 11.4075 91.7235 10.5097 91.7235 12.3437C91.7235 12.9868 91.1983 13.2778 90.5157 13.2778C90.1256 13.2778 89.8126 13.083 89.6191 12.8096C89.4231 12.557 89.346 12.1863 89.4051 11.8549H86.0911C86.0307 14.7793 88.1961 15.3065 90.596 15.3065C92.8379 15.3087 95.0219 14.4895 95.0219 12.1097ZM116.367 10.8039C116.388 7.27344 115.334 4.95273 111.414 4.95273C108.313 4.95273 106.462 6.86333 106.462 9.84795C106.462 13.514 107.767 15.3087 111.59 15.3087C112.779 15.3087 113.832 15.0352 114.631 14.4895C115.489 13.923 116.191 13.0262 116.288 11.798H113.014C112.916 12.6937 112.389 13.2985 111.356 13.2985C110.029 13.2985 109.757 12.032 109.775 10.8039H116.367ZM113.052 8.91287H109.836C109.912 7.87824 110.147 6.82619 111.435 6.76714C112.02 6.74741 112.409 7.02082 112.663 7.44953C112.936 7.85964 113.052 8.40545 113.052 8.93148V8.91287ZM85.2051 5.22614H81.7337V15.0353H85.2051V5.22614ZM80.6541 3.54953L81.4736 0.956398H72.1465V15.0353H75.8126V9.49689H78.7744L79.5901 6.90384H75.8126V3.55059L80.6541 3.54953ZM85.2032 3.54185L86.0276 0.953125H82.5979L81.7741 3.54185H85.2032Z" fill="#171717"/>
<path d="M33.8844 19.1582H32.6113V27.1398H33.8844V19.1582Z" fill="#171717"/>
<path fill-rule="evenodd" clip-rule="evenodd" d="M118.315 27.2768C115.656 27.2768 113.666 25.8025 113.666 23.2105C113.666 20.5868 115.899 18.9922 118.397 18.9922C119.291 18.9922 120.274 19.2853 120.902 19.6922L120.25 20.4687C119.686 20.1581 119.077 19.9513 118.413 19.9459C117.458 19.9383 116.518 20.2248 115.883 20.9215C115.365 21.4902 115.076 22.2251 115.076 23.2565C115.076 24.3764 115.421 24.991 116.023 25.586C116.632 26.1886 117.565 26.3538 118.481 26.3538C119.211 26.3538 119.934 26.0825 120.499 25.7839L121.12 26.5309C120.473 26.964 119.373 27.2768 118.315 27.2768Z" fill="#171717"/>
<path d="M106.202 19.1582H104.928V27.1398H106.202V19.1582Z" fill="#171717"/>
<path fill-rule="evenodd" clip-rule="evenodd" d="M76.1453 20.1129H73.1717V27.1398H71.9291V20.1129H68.9785V19.1582H76.284L76.1453 20.1129Z" fill="#171717"/>
<path fill-rule="evenodd" clip-rule="evenodd" d="M9.83282 26.8598C9.22472 27.1616 8.46355 27.3093 7.58311 27.3093C6.45334 27.3093 5.3072 27.0588 4.35352 26.5897L4.88179 25.6863C5.80813 26.1478 6.68848 26.3556 7.66624 26.3556C8.30383 26.3556 8.72601 26.2451 9.11757 26.0318C9.5736 25.7825 9.81969 25.4413 9.81969 25.0005C9.81969 24.3345 9.30791 23.9178 8.07423 23.6302L6.77491 23.3283C5.48327 23.0265 4.67072 22.2194 4.67072 21.2744C4.67072 19.9128 6.00826 18.9492 7.91563 18.9492C9.02791 18.9492 10.2167 19.2281 10.9779 19.7093L10.4037 20.5427C9.62388 20.1118 8.81132 19.904 7.98233 19.904C6.84814 19.904 6.06184 20.3448 6.06184 21.0928C6.06184 21.6692 6.54083 22.0126 7.65747 22.2806L8.85723 22.5682C9.53857 22.7323 10.2299 23.0199 10.6235 23.3775C10.9987 23.7199 11.2436 24.2689 11.2436 24.8037C11.2447 25.6184 10.7231 26.4136 9.83282 26.8598Z" fill="#171717"/>
<path fill-rule="evenodd" clip-rule="evenodd" d="M60.9604 27.1409L57.7898 22.8833C57.1948 22.0859 56.1909 20.5297 56.1909 20.5297C56.1909 20.5297 56.3035 21.8771 56.3123 23.0582L56.3417 27.1409H55.0742V19.1582H56.5845L59.789 23.5044C60.4124 24.352 61.2808 25.694 61.2808 25.694C61.2808 25.694 61.0915 24.2219 61.0817 23.1643L61.0533 19.1582H62.3089V27.1409H60.9604Z" fill="#171717"/>
<path d="M84.1012 19.1582H82.8281V27.1398H84.1012V19.1582Z" fill="#171717"/>
<path fill-rule="evenodd" clip-rule="evenodd" d="M97.9811 20.0965H93.6044V22.4589H97.3072V23.3995H93.6044V27.1398H92.3301V19.1582H98.151L97.9811 20.0965Z" fill="#171717"/>
<path fill-rule="evenodd" clip-rule="evenodd" d="M42.1133 27.1398V19.1582H47.9983L47.8288 20.1129H43.3873V22.4906H47.1737V23.4443H43.4027V26.1391H48.1569V27.1398H42.1133Z" fill="#171717"/>
<path fill-rule="evenodd" clip-rule="evenodd" d="M22.7712 27.2768C20.1114 27.2768 18.123 25.8025 18.123 23.2105C18.123 20.5868 20.3553 18.9922 22.8532 18.9922C23.7468 18.9922 24.731 19.2853 25.3577 19.6922L24.7058 20.4687C24.1426 20.1581 23.5335 19.9513 22.8696 19.9459C21.9149 19.9383 20.9743 20.2248 20.3388 20.9215C19.8205 21.4902 19.5318 22.2251 19.5318 23.2565C19.5318 24.3764 19.8773 24.991 20.4788 25.586C21.0891 26.1886 22.0209 26.3538 22.9363 26.3538C23.6669 26.3538 24.3898 26.0825 24.9563 25.7839L25.5754 26.5309C24.929 26.964 23.8298 27.2768 22.7712 27.2768Z" fill="#171717"/>
</g>
<defs>
<clipPath id="clip0_1307_17078">
<rect width="124.444" height="28" fill="white" transform="translate(0.00195312)"/>
</clipPath>
</defs>
</svg>
